<svg xmlns="http://www.w3.org/2000/svg" enable-background="new 0 0 24 24" viewBox="0 0 24 24" id="udemy"><path d="M19.272,8.773c0,0.008,0,0.015,0,0.023c0,0.001,0,0.002,0,0.003V8.773z"></path><path fill="#E35050" d="M22.856,13.28c-0.073-0.061-0.161-0.107-0.259-0.129l-0.004-0.001c-0.563,0.566-1.266,1.16-1.875,1.559c-0.291,0.186-0.656,0.278-0.891,0.278c-0.553,0-0.787-0.51-0.853-1.336c-0.103-1.206-0.161-2.61-0.161-4.028c0-0.153,0.001-0.305,0.002-0.457c0-2.096-0.488-3.524-1.762-3.635l-0.169-0.009c-0.778,0-1.162,0.399-1.659,1.411c-0.431,0.872-1.097,2.134-2.325,4.547c-0.995,1.945-2.069,3.619-3.281,5.178C9.329,17.01,9.104,17.252,8.889,17.4c-0.115,0.079-0.258,0.127-0.411,0.13H8.476c-0.403,0-0.703-0.334-0.797-1.123c-0.024-0.184-0.037-0.397-0.037-0.613c0-0.009,0-0.018,0-0.027c0-1.624,0.619-4.269,1.687-8.148c0.778-2.83,0.45-4.76-1.256-4.76H8.045c-0.384,0-0.703,0.148-1.012,0.39c-0.309,0.232-0.609,0.752-0.9,1.448c-0.319,0.78-2.269,4.668-5.381,6.681c-0.038,0.752,0.394,1.513,1.284,1.605c0.797,0.074,1.369-0.26,2.1-0.751l-0.15,0.677c-0.156,0.604-0.32,1.421-0.448,2.249l-0.021,0.163c-0.431,3.897,1.378,5.818,3.506,5.818c0.356,0,0.712-0.046,1.059-0.139c2.344-0.585,4.593-3.257,7.265-9.401c-0.02,0.306-0.03,0.664-0.03,1.024c0,0.291,0.008,0.58,0.022,0.868c0.182,3.512,1.577,4.558,3.561,4.558c1.5,0,2.897-0.77,3.609-1.735c0.444-0.555,0.72-1.26,0.741-2.028v-0.005C23.231,13.828,23.091,13.466,22.856,13.28L22.856,13.28z"></path><path d="M15.342,13.392c0-0.008,0-0.017-0.001-0.025c0-0.006-0.001-0.011-0.001-0.017L15.342,13.392z"></path><path d="M7.023,22c-1.167,0-2.233-0.474-3.003-1.335c-0.744-0.832-1.564-2.415-1.248-5.228l0.021-0.172c0.076-0.481,0.163-0.958,0.255-1.396c-0.33,0.092-0.684,0.131-1.081,0.096c-1.205-0.124-2.027-1.119-1.965-2.365c0.012-0.243,0.142-0.465,0.346-0.596C3.177,9.204,5.084,5.631,5.44,4.772C5.818,3.882,6.182,3.33,6.588,3.03c0.46-0.354,0.94-0.53,1.457-0.53c1.002,0,1.558,0.464,1.854,0.853c0.723,0.952,0.774,2.562,0.153,4.787c-0.996,3.56-1.659,6.252-1.659,7.82c0,0.203,0.01,0.378,0.03,0.528c0.026,0.218,0.066,0.346,0.096,0.417c0.165-0.128,0.365-0.357,0.526-0.551c1.202-1.523,2.25-3.152,3.19-4.963c0.578-1.117,1.031-1.985,1.395-2.68c0.406-0.777,0.698-1.336,0.925-1.788c0.456-0.912,1.011-1.803,2.33-1.803l0.212,0.011c1.138,0.098,2.468,0.926,2.47,4.328l-0.002,0.449c0,1.364,0.055,2.713,0.158,3.9c0.043,0.534,0.151,0.66,0.152,0.662c0.036-0.03,0.266-0.077,0.444-0.189c0.535-0.345,1.191-0.883,1.746-1.433c0.188-0.186,0.458-0.256,0.71-0.195c0.192,0.044,0.386,0.138,0.549,0.269c0.407,0.322,0.647,0.87,0.675,1.544c-0.023,0.944-0.346,1.814-0.907,2.505c-0.897,1.197-2.55,1.985-4.191,1.985c-2.389,0-3.767-1.315-4.189-4.012c-2.154,4.182-4.192,6.342-6.449,6.896C7.865,21.945,7.444,22,7.023,22z M4.137,11.729c0.148,0,0.298,0.044,0.426,0.133c0.252,0.174,0.373,0.483,0.306,0.782l-0.15,0.667c-0.158,0.608-0.316,1.39-0.438,2.167l-0.018,0.139c-0.197,1.753,0.114,3.195,0.878,4.05c0.68,0.761,1.746,0.983,2.753,0.722c2.198-0.54,4.346-3.347,6.769-8.833c0.147-0.332,0.51-0.513,0.865-0.426c0.354,0.087,0.594,0.414,0.569,0.777c-0.019,0.286-0.028,0.622-0.028,0.959c0,0.273,0.008,0.545,0.021,0.815c0.174,3.318,1.454,3.776,2.812,3.776c1.35,0,2.483-0.707,3.01-1.408c0.374-0.462,0.572-0.991,0.59-1.556c-0.464,0.406-0.947,0.779-1.375,1.055c-0.383,0.24-0.889,0.394-1.297,0.394c-0.537,0-1.46-0.261-1.601-2.006c-0.106-1.226-0.163-2.62-0.163-4.026l0.002-0.454c-0.001-1.245-0.188-2.751-1.077-2.827L16.842,6.62c-0.259,0.001-0.459,0.001-0.945,0.975c-0.229,0.459-0.526,1.025-0.938,1.812c-0.362,0.693-0.814,1.56-1.392,2.676c-0.985,1.896-2.083,3.604-3.358,5.219c-0.328,0.393-0.6,0.685-0.901,0.888c-0.238,0.162-0.521,0.251-0.815,0.257H8.491c-0.414,0-1.364-0.173-1.556-1.767c-0.027-0.2-0.043-0.445-0.043-0.692c0-1.766,0.686-4.572,1.714-8.251c0.683-2.444,0.247-3.278,0.097-3.477C8.611,4.139,8.457,4,8.073,4C7.918,4,7.752,4.027,7.49,4.229C7.416,4.283,7.186,4.499,6.823,5.353c-0.462,1.113-2.391,4.626-5.281,6.658c0.062,0.203,0.213,0.425,0.571,0.462c0.498,0.051,0.892-0.145,1.609-0.619C3.849,11.771,3.992,11.729,4.137,11.729z"></path></svg>